# AST/ASF file generated using VICON BodyLanguage
# -----------------------------------------------
:version 1.10
:name VICON
:units
  mass 1.0
  length 0.45
  angle deg
:documentation
   .ast/.asf automatically generated from VICON data using
   VICON BodyBuilder and BodyLanguage model FoxedUp or BRILLIANT.MOD
:root
   order TX TY TZ RX RY RZ
   axis XYZ
   position 0 0 0  
   orientation 0 0 0 
:bonedata
  begin
     id 1 
     name lhipjoint
     direction 0.561001 -0.76473 0.316963 
     length 2.4722 
     axis 0 0 0  XYZ
  end
  begin
     id 2 
     name lfemur
     direction 0.34202 -0.939693 0  
     length 7.59403  
     axis 0 0 20  XYZ
    dof rx ry rz
    limits (-160.0 20.0)
           (-70.0 70.0)
           (-60.0 70.0)
  end
  begin
     id 3 
     name ltibia
     direction 0.34202 -0.939693 0   
     length 7.89655   
     axis 0 0 20   XYZ
    dof rx
    limits (-10.0 170.0)
  end
  begin
     id 4 
     name lfoot
     direction 0.061296 -0.168409 0.98381   
     length 2.73287   
     axis -90 7.62852e-016 20   XYZ
    dof rx rz
    limits (-45.0 90.0)
           (-70.0 20.0)
  end
  begin
     id 5 
     name ltoes
     direction 1.53547e-011 -4.21984e-011 1   
     length 1.37057   
     axis -90 7.62852e-016 20   XYZ
    dof rx
    limits (-90.0 20.0)
  end
  begin
     id 6 
     name rhipjoint
     direction -0.559611 -0.765599 0.317323   
     length 2.46939  
     axis 0 0 0  XYZ 
  end
  begin
     id 7 
     name rfemur
     direction -0.34202 -0.939693 0   
     length 7.53712   
     axis 0 0 -20   XYZ
    dof rx ry rz
    limits (-160.0 20.0)
           (-70.0 70.0)
           (-70.0 60.0)
  end
  begin
     id 8 
     name rtibia
     direction -0.34202 -0.939693 0   
     length 8.12549   
     axis 0 0 -20   XYZ
    dof rx
    limits (-10.0 170.0)
 end
 begin
     id 9 
     name rfoot
     direction -0.066984 -0.184037 0.980634   
     length 2.67541  
     axis -90 -7.62852e-016 -20   XYZ
    dof rx rz
    limits (-45.0 90.0)
           (-20.0 70.0)
  end
  begin
     id 10 
     name rtoes
     direction -1.53549e-011 -4.21786e-011 1   
     length 1.34085   
     axis -90 -7.62852e-016 -20   XYZ
    dof rx
    limits (-90.0 20.0)
  end
  begin
     id 11 
     name lowerback
     direction -0.0522728 0.992594 -0.109658   
     length 2.05633   
     axis 0 0 0   XYZ
    dof rx ry rz
    limits (-20.0 45.0)
           (-30.0 30.0)
           (-30.0 30.0)
  end
  begin
     id 12 
     name upperback
     direction 0.00589338 0.999977 0.00335704   
     length 2.05845   
     axis 0 0 0   XYZ
    dof rx ry rz
    limits (-20.0 45.0)
           (-30.0 30.0)
           (-30.0 30.0)
  end
  begin
     id 13 
     name thorax
     direction 0.0292928 0.998059 0.0549487   
     length 2.09281   
     axis 0 0 0   XYZ
    dof rx ry rz
    limits (-20.0 45.0)
           (-30.0 30.0)
           (-30.0 30.0)
  end
  begin
     id 14 
     name lowerneck
     direction 0.0356368 0.980775 0.191858   
     length 1.84767   
     axis 0 0 0   XYZ
    dof rx ry rz
    limits (-20.0 45.0)
           (-30.0 30.0)
           (-30.0 30.0)
  end
  begin
     id 15 
     name upperneck
     direction -0.0227605 0.98931 -0.14404   
     length 1.89582   
     axis 0 0 0   XYZ
    dof rx ry rz
    limits (-20.0 45.0)
           (-30.0 30.0)
           (-30.0 30.0)
  end
  begin
     id 16
     name head
     direction -0.00932985 0.997511 -0.0698904  
     length 1.90213  
     axis 0 0 0   XYZ
    dof rx ry rz
    limits (-20.0 45.0)
           (-30.0 30.0)
           (-30.0 30.0)
  end
  begin
     id 17 
     name lclavicle
     direction 0.873442 0.479511 0.0846686  
     length 3.41193  
     axis 0 0 0   XYZ
    dof ry rz
    limits (-20.0 10.0)
           (0.0 20.0)
  end
  begin
     id 18 
     name lhumerus
     direction 1 -4.4897e-011 -5.62117e-018   
     length 5.59864   
     axis 180 -30 -90   XYZ
    dof rx ry rz
    limits (-60.0 90.0)
           (-90.0 90.0)
           (-90.0 90.0)
  end
  begin
     id 19
     name lradius
     direction 1 -4.48966e-011 -6.26295e-027   
     length 3.59542   
     axis 180 -30 -90   XYZ
    dof rx
    limits (-10.0 170.0)
  end
  begin
     id 20
     name lwrist
     direction 1 -4.48947e-011 -1.74096e-026   
     length 1.79771   
     axis 1.04567e-014 90 90   XYZ
    dof ry
    limits (-180.0 0.0)
 end
  begin
     id 21 
     name lhand
     direction 1 -4.49085e-011 -3.48469e-026   
     length 0.572014   
     axis 2.22196e-014 90 90   XYZ
    dof rx rz
    limits (-90.0 90.0)
           (-45.0 45.0)
  end
  begin
     id 22 
     name lfingers
     direction 1 -4.48884e-011 -6.96135e-026   
     length 0.461173   
     axis 4.44383e-014 90 90   XYZ
    dof rx
    limits (0.0 90.0)
  end
  begin
     id 23
     name lthumb
     direction 0.707107 -6.34976e-011 0.707107   
     length 0.662154   
     axis -90 45 -5.4397e-014   XYZ
    dof rx rz
    limits (-45.0 45.0)
           (-45.0 45.0)
  end
  begin
     id 24 
     name rclavicle
     direction -0.890242 0.443271 0.104786   
     length 3.46753  
     axis 0 0 0   XYZ 
    dof ry rz
    limits (-10.0 20.0)
           (-20.0 0.0)
  end
  begin
     id 25 
     name rhumerus
     direction -1 -4.48963e-011 -5.41723e-018  
     length 5.8094   
     axis 180 30 90   XYZ
    dof rx ry rz
    limits (-90.0 60.0)
           (-90.0 90.0)
           (-90.0 90.0)
  end
  begin
     id 26 
     name rradius
     direction -1 -4.48958e-011 -6.51059e-027   
     length 3.66953   
     axis 180 30 90   XYZ
    dof rx
    limits (-10.0 170.0)
  end
  begin
     id 27 
     name rwrist
     direction -1 -4.48975e-011 -1.74124e-026   
     length 1.83476   
     axis 1.04567e-014 -90 -90   XYZ
    dof ry
    limits (-180.0 0.0)
  end
  begin
     id 28
     name rhand
     direction -1 -4.49013e-011 -3.48326e-026   
     length 0.57843   
     axis 2.22196e-014 -90 -90   XYZ
    dof rx rz
    limits (-90.0 90.0)
           (-45.0 45.0)
  end
  begin
     id 29
     name rfingers
     direction -1 -4.49023e-011 -6.9669e-026   
     length 0.466345   
     axis 4.44383e-014 -90 -90   XYZ
    dof rx
    limits (0.0 90.0)
  end
  begin
     id 30
     name rthumb
     direction -0.707107 -6.34926e-011 0.707107   
     length 0.669581   
     axis -90 -45 5.4397e-014   XYZ
    dof rx rz
    limits (-45.0 45.0)
           (-45.0 45.0)
  end
:hierarchy
  begin
    root lhipjoint rhipjoint lowerback
    lhipjoint lfemur
    lfemur ltibia
    ltibia lfoot
    lfoot ltoes
    rhipjoint rfemur
    rfemur rtibia
    rtibia rfoot
    rfoot rtoes
    lowerback upperback
    upperback thorax
    thorax lowerneck lclavicle rclavicle
    lowerneck upperneck
    upperneck head
    lclavicle lhumerus
    lhumerus lradius
    lradius lwrist
    lwrist lhand lthumb
    lhand lfingers
    rclavicle rhumerus
    rhumerus rradius
    rradius rwrist
    rwrist rhand rthumb
    rhand rfingers
  end

#!OML:ASF H:\SkateBoarding\Project 1\Capture day 1\Session 1\Skater.ASF
:FULLY-SPECIFIED
:DEGREES
223
root -7.89035 18.8384 31.4142 -148.651 57.2083 -171.492
lowerback 10.1701 -0.795978 -1.07804
upperback -3.49606 -0.613899 5.2999
thorax -9.41857 0.013192 6.43952
lowerneck -14.6771 -13.8054 -8.73542
upperneck 31.1749 -19.0322 7.14294
head 14.8499 -7.99028 0.981496
rclavicle -3.91606e-014 3.53837e-014
rhumerus -15.6859 8.59498 -45.3805
rradius 41.2428
rwrist -10.3501
rhand -41.2302 -4.51089
rfingers 7.12502
rthumb -14.1534 -34.0088
lclavicle -3.91606e-014 3.53837e-014
lhumerus -5.74705 -3.25623 20.7925
lradius 108.156
lwrist 43.3262
lhand -41.8169 7.82603
lfingers 7.12502
lthumb -14.7188 37.2835
rfemur -23.5436 4.61659 8.07027
rtibia 42.3542
rfoot -32.5173 23.1353
rtoes -3.17378
lfemur -13.9572 0.133247 -16.4029
ltibia 35.3239
lfoot -51.0158 2.81252
ltoes -19.6235
224
root -7.72881 18.8419 31.7294 -148.806 56.3728 -171.663
lowerback 10.122 -1.0293 -0.748314
upperback -3.40849 -0.8683 5.42263
thorax -9.2665 -0.128564 6.42271
lowerneck -14.8393 -13.7166 -8.36911
upperneck 31.3093 -18.9266 6.93089
head 14.8594 -7.9181 0.85876
rclavicle 3.85642e-014 5.60573e-014
rhumerus -16.0733 7.61789 -45.3929
rradius 40.5042
rwrist -10.336
rhand -41.3424 -4.89412
rfingers 7.12502
rthumb -14.2616 -34.3844
lclavicle 3.85642e-014 5.60573e-014
lhumerus -3.61667 -2.18831 21.8745
lradius 107.211
lwrist 43.0246
lhand -41.3367 7.12294
lfingers 7.12502
lthumb -14.2561 36.6136
rfemur -23.5775 6.26817 7.64178
rtibia 40.367
rfoot -30.6709 24.0596
rtoes -1.45489
lfemur -14.2184 0.843304 -16.7788
ltibia 35.7184
lfoot -52.7153 4.25171
ltoes -20.1699
225
root -7.56611 18.8465 32.0513 -149.158 55.3733 -171.974
lowerback 10.226 -1.32339 -0.547851
upperback -3.29655 -1.21516 5.59757
thorax -9.16549 -0.304197 6.55954
lowerneck -15.0499 -13.6234 -8.11641
upperneck 31.4678 -18.8104 6.7939
head 14.9157 -7.84057 0.779027
rclavicle 2.68359e-014 8.26944e-014
rhumerus -16.4112 6.55946 -45.422
rradius 39.7122
rwrist -10.2147
rhand -41.3716 -5.01376
rfingers 7.12502
rthumb -14.2897 -34.5021
lclavicle 2.68359e-014 8.26944e-014
lhumerus -1.58543 -1.17714 23.1496
lradius 106.319
lwrist 42.783
lhand -40.9548 6.78811
lfingers 7.12502
lthumb -13.8881 36.3044
rfemur -23.5661 7.71284 7.32829
rtibia 38.4858
rfoot -29.5075 24.3109
rtoes -0.476162
lfemur -14.5303 1.24377 -17.0428
ltibia 36.1617
lfoot -54.3432 5.18021
ltoes -20.4742
226
root -7.39896 18.853 32.3762 -149.627 54.204 -172.446
lowerback 10.2737 -1.63431 -0.42113
upperback -3.17521 -1.5987 5.76102
thorax -9.01532 -0.495891 6.72892
lowerneck -15.0547 -13.547 -8.00359
upperneck 31.4667 -18.7465 6.87005
head 14.9068 -7.78801 0.807006
rclavicle 1.45113e-014 4.77083e-014
rhumerus -16.9003 5.50582 -45.4715
rradius 39.0198
rwrist -10.2074
rhand -41.3386 -5.21535
rfingers 7.12502
rthumb -14.2579 -34.7059
lclavicle 1.45113e-014 4.77083e-014
lhumerus 0.552985 -0.353739 24.5835
lradius 105.432
lwrist 42.6151
lhand -40.6736 6.25037
lfingers 7.12502
lthumb -13.6171 35.785
rfemur -23.5851 8.80053 7.15562
rtibia 36.768
rfoot -28.6422 24.5576
rtoes 0.778218
lfemur -15.0174 1.29867 -17.186
ltibia 36.598
lfoot -55.9263 6.02364
ltoes -20.557
227
root -7.21836 18.8527 32.6849 -150.508 52.8625 -173.33
lowerback 10.2087 -2.03426 -0.314375
upperback -3.03376 -2.12302 5.83054
thorax -8.76173 -0.764629 6.82092
lowerneck -15.2391 -13.5135 -7.74307
upperneck 31.6447 -18.7452 6.79907
head 14.987 -7.74729 0.729539
rclavicle 7.25564e-014 2.8625e-014
rhumerus -17.4434 4.37237 -45.6142
rradius 38.2502
rwrist -10.1379
rhand -41.2698 -5.44521
rfingers 7.12502
rthumb -14.1916 -34.9404
lclavicle 7.25564e-014 2.8625e-014
lhumerus 2.77836 0.235899 26.1098
lradius 104.492
lwrist 42.5061
lhand -40.4213 6.05612
lfingers 7.12502
lthumb -13.3739 35.6069
rfemur -23.3585 9.15495 6.96331
rtibia 35.2128
rfoot -28.1217 24.5346
rtoes 1.43834
lfemur -15.4257 1.06861 -17.4652
ltibia 37.0307
lfoot -57.3479 6.9095
ltoes -21.043
228
root -7.03329 18.8612 32.9984 -151.387 51.3365 -174.246
lowerback 10.1715 -2.4463 -0.295422
upperback -2.92863 -2.66933 5.93304
thorax -8.55699 -1.03625 7.00437
lowerneck -15.2476 -13.4955 -7.65308
upperneck 31.6787 -18.7816 6.93054
head 15.016 -7.72808 0.760977
rclavicle -9.30312e-014 -5.1684e-014
rhumerus -18.1163 3.13279 -45.7403
rradius 37.4668
rwrist -10.0174
rhand -41.0539 -5.55093
rfingers 7.12502
rthumb -13.9836 -35.0606
lclavicle -9.30312e-014 -5.1684e-014
lhumerus 5.07122 0.566931 27.7727
lradius 103.48
lwrist 42.4064
lhand -40.5183 5.53588
lfingers 7.12502
lthumb -13.4674 35.0805
rfemur -23.2754 9.19991 6.95065
rtibia 33.995
rfoot -27.8456 23.9761
rtoes 1.50979
lfemur -15.9705 0.629387 -17.5872
ltibia 37.3633
lfoot -58.5204 7.9809
ltoes -21.6034
229
root -6.83997 18.876 33.3098 -152.361 49.6888 -175.21
lowerback 10.2104 -2.88079 -0.349291
upperback -2.8147 -3.25925 6.00207
thorax -8.37749 -1.32763 7.20243
lowerneck -15.2532 -13.5121 -7.55253
upperneck 31.7242 -18.8976 7.1325
head 15.0667 -7.72988 0.802204
rclavicle -6.22196e-014 5.56597e-014
rhumerus -18.8996 1.82953 -45.9598
rradius 36.7051
rwrist -9.84356
rhand -40.8207 -5.7969
rfingers 7.12502
rthumb -13.7588 -35.322
lclavicle -6.22196e-014 5.56597e-014
lhumerus 7.74106 0.698535 29.3254
lradius 102.198
lwrist 42.4185
lhand -40.6878 5.83605
lfingers 7.12502
lthumb -13.6308 35.3698
rfemur -23.1157 8.9753 7.06147
rtibia 33.0816
rfoot -27.6247 23.5058
rtoes 1.64994
lfemur -16.5401 -0.114031 -17.5803
ltibia 37.7183
lfoot -59.4783 9.16284
ltoes -22.2849
230
root -6.63789 18.9149 33.6151 -153.195 47.9802 -176.019
lowerback 10.1973 -3.30518 -0.397156
upperback -2.70411 -3.83507 6.07375
thorax -8.17065 -1.61391 7.39087
lowerneck -15.2098 -13.5437 -7.45691
upperneck 31.7546 -19.0462 7.37301
head 15.1095 -7.74268 0.856241
rclavicle -4.45278e-014 -6.67916e-014
rhumerus -19.7472 0.551313 -46.2432
rradius 35.9455
rwrist -9.73229
rhand -40.6427 -6.33717
rfingers 7.12502
rthumb -13.5873 -35.8738
lclavicle -4.45278e-014 -6.67916e-014
lhumerus 10.0896 0.504835 31.1832
lradius 101.063
lwrist 42.124
lhand -40.9742 5.63225
lfingers 7.12502
lthumb -13.9068 35.1472
rfemur -22.7946 8.12904 7.51628
rtibia 32.5998
rfoot -28.8048 22.549
rtoes 1.21012
lfemur -17.1294 -0.999716 -17.3591
ltibia 38.0298
lfoot -60.1243 10.0539
ltoes -23.2001
231
root -6.44639 18.9216 33.9421 -153.925 46.0272 -176.569
lowerback 10.4316 -3.80742 -0.273125
upperback -2.60524 -4.47312 6.20025
thorax -8.1182 -1.92998 7.57344
lowerneck -14.9418 -13.5858 -7.77306
upperneck 31.7164 -19.2139 7.97276
head 15.1802 -7.77264 1.12188
rclavicle -2.18663e-015 -2.62396e-014
rhumerus -20.664 -0.631806 -46.6479
rradius 35.2711
rwrist -9.50201
rhand -40.3446 -6.68661
rfingers 7.12502
rthumb -13.3 -36.2422
lclavicle -2.18663e-015 -2.62396e-014
lhumerus 12.3376 0.085734 33.1667
lradius 99.8724
lwrist 41.8006
lhand -41.3343 5.27856
lfingers 7.12502
lthumb -14.2538 34.7694
rfemur -22.3164 7.29884 8.24416
rtibia 32.4052
rfoot -30.681 22.2069
rtoes -0.312851
lfemur -17.8691 -2.46499 -16.616
ltibia 38.4681
lfoot -60.2269 10.115
ltoes -23.9009
232
root -6.24513 18.9299 34.2557 -155.033 44.293 -177.454
lowerback 10.5232 -4.22701 -0.428062
upperback -2.37179 -5.07683 6.13311
thorax -7.83275 -2.23767 7.67115
lowerneck -14.6925 -13.6614 -7.84021
upperneck 31.5808 -19.4922 8.56521
head 15.1907 -7.82839 1.32553
rclavicle -1.60618e-013 -1.82882e-014
rhumerus -21.6303 -2.03571 -47.1753
rradius 34.5468
rwrist -9.48785
rhand -40.2027 -7.06615
rfingers 7.12502
rthumb -13.1632 -36.6306
lclavicle -1.60618e-013 -1.82882e-014
lhumerus 14.6093 -0.532228 35.2552
lradius 98.7241
lwrist 41.4666
lhand -41.5401 5.19331
lfingers 7.12502
lthumb -14.452 34.6701
rfemur -21.7148 6.38303 8.64245
rtibia 32.5604
rfoot -31.8101 22.66
rtoes -0.16413
lfemur -18.4335 -4.10955 -16.142
ltibia 38.9538
lfoot -60.166 9.89433
ltoes -24.0718
233
root -6.04053 18.9375 34.5745 -155.978 42.5856 -178.096
lowerback 10.7967 -4.56277 -0.5751
upperback -2.21887 -5.54899 6.11478
thorax -7.75067 -2.46924 7.82364
lowerneck -14.3697 -13.8188 -7.95992
upperneck 31.5586 -19.8523 9.07854
head 15.2459 -7.92972 1.49317
rclavicle -6.10269e-014 -4.96962e-014
rhumerus -22.7582 -3.66599 -47.5743
rradius 33.6747
rwrist -9.03521
rhand -39.9222 -7.32903
rfingers 7.12502
rthumb -12.8927 -36.9108
lclavicle -6.10269e-014 -4.96962e-014
lhumerus 16.6943 -1.61118 37.7638
lradius 97.6872
lwrist 40.782
lhand -41.435 5.44786
lfingers 7.12502
lthumb -14.3508 34.9318
rfemur -21.2546 5.36633 9.2541
rtibia 32.8667
rfoot -32.4066 23.2442
rtoes 0.212556
lfemur -19.0932 -5.63943 -15.4206
ltibia 39.5762
lfoot -59.8189 9.68335
ltoes -24.1037
